# xmcd
#
# Track frame offsets: 
#        150
#        13149
#        22031
#        35234
#        45378
#        57879
#        71436
#        85383
#        98833
#        112711
#        127740
#        138169
#        157479
#        169596
#        181780
#        195213
#        206894
#        220168
#        232109
#        245109
#
# Disc length: 3445 seconds
#
# Revision: 0
# Processed by: cddbd v1.5.2PL0 Copyright (c) Steve Scherf et al.
# Submitted via: ExactAudioCopyFreeDBPlugin 1.0
#
DISCID=160d7314
DTITLE=Various Artist - Bluegrass Hit Festival - CD 9
DYEAR=1900
DGENRE=Bluegrass
TTITLE0=Bill Monroe - Will You Be Another Man
TTITLE1=Don Reno and Arthur Smith - Feudin' Banjos
TTITLE2=Lester Flatt and Earl Scruggs - God Loves His Children
TTITLE3=The Stanley Brothers - Blue Moon of Kentucky
TTITLE4=Bill Monroe - When You Are Lonely
TTITLE5=The Bailey Brothers - Heart's Hall of Fame
TTITLE6=Tanner and Puckett - Tanner's Boarding House
TTITLE7=Lester Flatt and Earl Scruggs - Baby Blue Eyes
TTITLE8=Uncle Dave Macon - Go Along Mule
TTITLE9=Bill Monroe - Sweetheart You Done Me Wrong
TTITLE10=The Stanley Brothers - Calling from Heaven
TTITLE11=Ernest Stoneman - Hop Light Ladies
TTITLE12=Lester Flatt and Earl Scruggs - Why Don's You Tell Me So
TTITLE13=Molly O'Day - Poor Ellen Smith
TTITLE14=Bill Monroe - Blue Grass Stomp
TTITLE15=The Stanley Brothers - Mother No Longer Waits for Me
TTITLE16=Tanner and Puckett - Carve That Possum
TTITLE17=Lester Flatt and Earl Scruggs - Roll in My Sweet Baby's Arms
TTITLE18=Tanner and Puckett - On Tanner's Farm
TTITLE19=Bill Monroe - My Rose of Old Kentucky
EXTD=
EXTT0=
EXTT1=
EXTT2=
EXTT3=
EXTT4=
EXTT5=
EXTT6=
EXTT7=
EXTT8=
EXTT9=
EXTT10=
EXTT11=
EXTT12=
EXTT13=
EXTT14=
EXTT15=
EXTT16=
EXTT17=
EXTT18=
EXTT19=
PLAYORDER=
